<svg viewBox="0 -9 512.00013 512" xmlns="http://www.w3.org/2000/svg" fill="#834c69">
	<path d="m501.070312 157.988281-147.058593-147.058593c-14.574219-14.574219-38.285157-14.570313-52.859375 0l-147.054688 147.058593c-14.574218 14.574219-14.574218 38.285157 0 52.859375l.257813.257813h-116.976563c-20.609375 0-37.378906 16.769531-37.378906 37.378906v207.96875c0 20.613281 16.769531 37.378906 37.378906 37.378906h139.925782c4.128906 0 7.476562-3.347656 7.476562-7.476562 0-4.128907-3.347656-7.476563-7.476562-7.476563h-139.925782c-12.367187 0-22.429687-10.058594-22.429687-22.425781v-207.96875c0-12.363281 10.0625-22.425781 22.429687-22.425781h207.96875c12.367188 0 22.425782 10.0625 22.425782 22.425781v207.96875c0 12.367187-10.058594 22.429687-22.425782 22.429687h-35.816406c-4.128906 0-7.472656 3.347657-7.472656 7.476563s3.34375 7.472656 7.472656 7.472656h35.816406c20.609375 0 37.378906-16.765625 37.378906-37.375v-207.972656c0-20.609375-16.769531-37.375-37.378906-37.375h-69.851562l-10.828125-10.832031c-8.746094-8.746094-8.746094-22.972656 0-31.714844l147.054687-147.058594c8.746094-8.746094 22.972656-8.746094 31.71875 0l147.054688 147.054688c8.746094 8.746094 8.746094 22.972656 0 31.71875l-147.054688 147.054687c-8.746094 8.746094-22.972656 8.746094-31.71875 0l-5.804687-5.804687c-2.917969-2.917969-7.652344-2.917969-10.570313 0-2.921875 2.921875-2.921875 7.652344 0 10.574218l5.804688 5.804688c7.285156 7.285156 16.859375 10.929688 26.429687 10.929688 9.570313 0 19.144531-3.644532 26.429688-10.929688l147.054687-147.058594c14.578125-14.574218 14.578125-38.285156.003906-52.859375zm0 0"/>
	<path d="m65.144531 277.613281c-16.027343 0-29.066406 13.039063-29.066406 29.066407 0 16.03125 13.039063 29.070312 29.066406 29.070312 16.03125 0 29.070313-13.039062 29.070313-29.070312 0-16.027344-13.039063-29.066407-29.070313-29.066407zm0 43.183594c-7.78125 0-14.113281-6.332031-14.113281-14.117187 0-7.78125 6.332031-14.113282 14.113281-14.113282 7.785157 0 14.117188 6.332032 14.117188 14.113282 0 7.785156-6.332031 14.117187-14.117188 14.117187zm0 0"/>
	<path d="m140.367188 277.613281c-16.027344 0-29.070313 13.039063-29.070313 29.066407 0 16.03125 13.042969 29.070312 29.070313 29.070312 16.027343 0 29.066406-13.039062 29.066406-29.070312 0-16.027344-13.039063-29.066407-29.066406-29.066407zm0 43.183594c-7.785157 0-14.117188-6.332031-14.117188-14.117187 0-7.78125 6.332031-14.113282 14.117188-14.113282 7.78125 0 14.113281 6.332032 14.113281 14.113282 0 7.785156-6.332031 14.117187-14.113281 14.117187zm0 0"/>
	<path d="m216.46875 335.75c16.027344 0 29.066406-13.042969 29.066406-29.070312 0-16.027344-13.039062-29.066407-29.066406-29.066407-16.03125 0-29.070312 13.039063-29.070312 29.066407 0 16.027343 13.039062 29.070312 29.070312 29.070312zm0-43.183594c7.78125 0 14.113281 6.332032 14.113281 14.113282 0 7.785156-6.332031 14.117187-14.113281 14.117187-7.785156 0-14.117188-6.332031-14.117188-14.117187 0-7.78125 6.332032-14.113282 14.117188-14.113282zm0 0"/>
	<path d="m65.144531 367.320312c-16.027343 0-29.066406 13.042969-29.066406 29.070313s13.039063 29.066406 29.066406 29.066406c16.03125 0 29.070313-13.039062 29.070313-29.066406s-13.039063-29.070313-29.070313-29.070313zm0 43.183594c-7.78125 0-14.113281-6.332031-14.113281-14.113281 0-7.785156 6.332031-14.117187 14.113281-14.117187 7.785157 0 14.117188 6.332031 14.117188 14.117187 0 7.78125-6.332031 14.113281-14.117188 14.113281zm0 0"/>
	<path d="m140.367188 367.320312c-16.027344 0-29.070313 13.042969-29.070313 29.070313s13.042969 29.066406 29.070313 29.066406c16.027343 0 29.066406-13.039062 29.066406-29.066406s-13.039063-29.070313-29.066406-29.070313zm0 43.183594c-7.785157 0-14.117188-6.332031-14.117188-14.113281 0-7.785156 6.332031-14.117187 14.117188-14.117187 7.78125 0 14.113281 6.332031 14.113281 14.117187 0 7.78125-6.332031 14.113281-14.113281 14.113281zm0 0"/>
	<path d="m245.535156 396.386719c0-16.027344-13.039062-29.066407-29.066406-29.066407-16.03125 0-29.070312 13.039063-29.070312 29.066407 0 16.03125 13.039062 29.070312 29.070312 29.070312 16.027344 0 29.066406-13.039062 29.066406-29.070312zm-43.183594 0c0-7.78125 6.332032-14.113281 14.117188-14.113281 7.78125 0 14.113281 6.332031 14.113281 14.113281 0 7.785156-6.332031 14.117187-14.113281 14.117187-7.785156 0-14.117188-6.332031-14.117188-14.117187zm0 0"/>
	<path d="m272.054688 103.878906c-7.761719 0-15.0625 3.023438-20.550782 8.511719-5.492187 5.488281-8.515625 12.789063-8.515625 20.554687 0 7.761719 3.023438 15.0625 8.515625 20.550782 5.488282 5.492187 12.785156 8.515625 20.550782 8.515625 7.765624 0 15.066406-3.023438 20.554687-8.515625 5.492187-5.488282 8.515625-12.789063 8.515625-20.550782 0-7.765624-3.023438-15.066406-8.515625-20.554687-5.488281-5.488281-12.789063-8.511719-20.554687-8.511719zm9.984374 39.046875c-2.667968 2.667969-6.210937 4.136719-9.984374 4.136719-3.769532 0-7.316407-1.46875-9.980469-4.136719-2.667969-2.664062-4.136719-6.210937-4.136719-9.980469 0-3.769531 1.46875-7.316406 4.136719-9.980468 2.664062-2.667969 6.210937-4.136719 9.980469-4.136719 3.773437 0 7.316406 1.46875 9.984374 4.136719 2.664063 2.664062 4.132813 6.210937 4.132813 9.980468 0 3.769532-1.46875 7.3125-4.132813 9.980469zm0 0"/>
	<path d="m325.246094 157.066406c-7.765625 0-15.066406 3.023438-20.554688 8.511719-5.492187 5.492187-8.515625 12.789063-8.515625 20.554687 0 7.765626 3.023438 15.0625 8.515625 20.554688 5.488282 5.488281 12.789063 8.511719 20.554688 8.511719 7.761718 0 15.0625-3.023438 20.554687-8.511719 5.488281-5.492188 8.511719-12.789062 8.511719-20.554688 0-7.765624-3.023438-15.0625-8.511719-20.554687-5.492187-5.488281-12.792969-8.511719-20.554687-8.511719zm9.980468 39.050782c-2.667968 2.664062-6.210937 4.132812-9.984374 4.132812-3.769532 0-7.3125-1.46875-9.980469-4.132812-2.664063-2.667969-4.132813-6.214844-4.132813-9.984376 0-3.769531 1.46875-7.316406 4.132813-9.980468 2.667969-2.667969 6.210937-4.136719 9.980469-4.136719 3.773437 0 7.316406 1.46875 9.984374 4.136719 2.664063 2.664062 4.132813 6.210937 4.132813 9.980468 0 3.769532-1.46875 7.316407-4.132813 9.984376zm0 0"/>
	<path d="m379.054688 269.011719c7.765624 0 15.0625-3.023438 20.554687-8.511719 5.488281-5.492188 8.511719-12.789062 8.511719-20.554688 0-7.765624-3.023438-15.0625-8.511719-20.554687-5.492187-5.488281-12.789063-8.511719-20.554687-8.511719-7.765626 0-15.0625 3.023438-20.554688 8.511719-5.488281 5.492187-8.511719 12.789063-8.511719 20.554687 0 7.765626 3.023438 15.0625 8.511719 20.554688 5.492188 5.488281 12.789062 8.511719 20.554688 8.511719zm-9.980469-39.046875c2.664062-2.667969 6.210937-4.136719 9.980469-4.136719 3.773437 0 7.316406 1.46875 9.984374 4.136719 2.664063 2.664062 4.132813 6.207031 4.132813 9.980468 0 3.769532-1.46875 7.3125-4.132813 9.980469-2.667968 2.667969-6.210937 4.136719-9.984374 4.136719-3.769532 0-7.316407-1.46875-9.980469-4.136719-2.667969-2.667969-4.132813-6.210937-4.132813-9.980469-.003906-3.773437 1.464844-7.316406 4.132813-9.980468zm0 0"/>
</svg>