<svg xmlns="http://www.w3.org/2000/svg" viewBox="0 0 512 512" fill="#834c69">
	<path d="M99.402,367.193c-13.125,0-23.803,10.678-23.803,23.804c0,13.125,10.678,23.803,23.803,23.803
		c13.125,0,23.804-10.678,23.804-23.803C123.206,377.871,112.529,367.193,99.402,367.193z M99.402,399.592
		c-4.74,0-8.596-3.856-8.596-8.596s3.856-8.596,8.596-8.596s8.596,3.856,8.596,8.596
		C107.999,395.736,104.143,399.592,99.402,399.592z"/>
	<path d="M390.998,367.193c-13.125,0-23.804,10.678-23.804,23.804c0,13.125,10.678,23.803,23.804,23.803
		c13.125,0,23.803-10.678,23.803-23.803C414.801,377.871,404.123,367.193,390.998,367.193z M390.998,399.592
		c-4.74,0-8.596-3.856-8.596-8.596s3.856-8.596,8.596-8.596c4.74,0,8.596,3.856,8.596,8.596
		C399.593,395.736,395.737,399.592,390.998,399.592z"/>
	<path d="M468.099,280.37l-67.19-20.157l-44.922-57.757c-19.998-25.713-50.151-40.46-82.726-40.46h-9.657v-17.192h13.995
		c10.522,0,22.711-4.044,32.606-10.819c11.734-8.035,18.198-18.4,18.198-29.184c0-10.784-6.463-21.149-18.198-29.184
		c-9.894-6.775-22.084-10.819-32.606-10.819H72.403c-10.522,0-22.711,4.044-32.606,10.819
		c-11.734,8.035-18.198,18.399-18.198,29.184s6.463,21.149,18.198,29.184c9.895,6.775,22.084,10.819,32.606,10.819h13.995v17.192
		H45.477L0,287.059v4.536v47.608v3.196c0,25.444,18.802,46.575,43.241,50.238c0.872,30.234,25.721,54.565,56.162,54.565
		c30.252,0,54.984-24.027,56.147-53.999h179.301c1.163,29.972,25.896,53.999,56.148,53.999s54.984-24.027,56.147-53.999H512v-43.2
		v-7.604v-3.022C512,311.96,494.358,288.248,468.099,280.37z M496.2,334.794h-24.204c-7.717,0-13.995-6.278-13.995-13.995v-27.58
		l5.727,1.719C480.326,299.917,493.33,316.332,496.2,334.794z M273.261,177.205c27.848,0,53.625,12.607,70.722,34.589
		l36.867,47.402H231.204v-81.991h32.4H273.261z M101.606,161.997v-17.192h146.79v17.192H101.606z M72.403,80.006h205.196
		c11.781,0,27.202,7.829,33.125,17.192H39.278C45.201,87.835,60.622,80.006,72.403,80.006z M72.403,129.597
		c-11.781,0-27.202-7.829-33.125-17.192h271.445c-5.923,9.363-21.343,17.192-33.125,17.192h-13.994H86.398H72.403z M99.402,431.992
		c-22.605,0-40.995-18.39-40.995-40.995c0-1.359,0.07-2.701,0.2-4.025l0.054-0.487c0.006-0.059,0.016-0.118,0.022-0.176
		c0.068-0.599,0.147-1.195,0.24-1.786c0.016-0.1,0.036-0.2,0.054-0.3c0.087-0.528,0.18-1.055,0.288-1.577
		c3.17-15.255,14.842-27.429,29.82-31.327c0.051-0.013,0.1-0.026,0.151-0.04c0.561-0.143,1.126-0.273,1.696-0.392
		c0.115-0.024,0.228-0.05,0.343-0.073c0.511-0.103,1.027-0.193,1.545-0.277c0.161-0.026,0.321-0.056,0.484-0.08
		c0.484-0.073,0.972-0.131,1.461-0.187c0.189-0.021,0.376-0.048,0.566-0.066c0.491-0.049,0.985-0.082,1.481-0.113
		c0.184-0.011,0.366-0.029,0.551-0.039c0.676-0.033,1.357-0.052,2.041-0.052c0.684,0,1.365,0.018,2.041,0.052
		c0.185,0.009,0.366,0.027,0.549,0.039c0.496,0.031,0.992,0.065,1.482,0.114c0.19,0.018,0.376,0.045,0.565,0.066
		c0.49,0.056,0.978,0.114,1.463,0.187c0.161,0.024,0.32,0.054,0.481,0.079c0.519,0.084,1.036,0.173,1.548,0.278
		c0.114,0.022,0.226,0.049,0.34,0.072c0.571,0.121,1.138,0.249,1.699,0.393c0.05,0.012,0.098,0.025,0.147,0.039
		c14.979,3.897,26.652,16.073,29.822,31.329c0.105,0.513,0.197,1.031,0.283,1.552c0.018,0.108,0.041,0.216,0.058,0.324
		c0.092,0.587,0.17,1.18,0.238,1.775c0.007,0.063,0.017,0.126,0.024,0.189l0.054,0.483c0.13,1.325,0.2,2.667,0.2,4.027
		C140.398,413.602,122.007,431.992,99.402,431.992z M215.996,377.993h-61.908c-0.054-0.23-0.12-0.455-0.176-0.684
		c-0.058-0.23-0.117-0.459-0.177-0.687c-0.198-0.753-0.41-1.5-0.638-2.239c-0.013-0.042-0.025-0.083-0.039-0.126
		c-6.04-19.497-22.271-34.186-42.245-38.297c-0.107-0.022-0.215-0.042-0.322-0.063c-0.737-0.147-1.478-0.28-2.224-0.398
		c-0.229-0.036-0.458-0.07-0.688-0.104c-0.64-0.093-1.284-0.174-1.929-0.246c-0.276-0.03-0.551-0.063-0.827-0.089
		c-0.638-0.061-1.279-0.107-1.923-0.147c-0.264-0.016-0.526-0.039-0.792-0.051c-0.897-0.043-1.798-0.069-2.705-0.069
		c-0.905,0-1.804,0.026-2.699,0.069c-0.264,0.012-0.524,0.034-0.787,0.051c-0.643,0.04-1.285,0.086-1.921,0.147
		c-0.277,0.026-0.552,0.058-0.827,0.088c-0.647,0.071-1.291,0.153-1.931,0.246c-0.228,0.033-0.455,0.066-0.682,0.102
		c-0.759,0.12-1.514,0.256-2.264,0.406c-0.092,0.018-0.187,0.034-0.279,0.054c-19.975,4.103-36.21,18.789-42.258,38.28
		c-0.013,0.041-0.026,0.082-0.039,0.123c-0.232,0.754-0.449,1.515-0.65,2.283c-0.042,0.158-0.086,0.315-0.127,0.474
		c-0.031,0.127-0.07,0.249-0.1,0.376c-16.797-2.846-29.629-17.5-29.629-35.095v-3.196h35.596v-15.208H15.208v-17.192h35.596
		v-15.208H15.208v-1.856l5.576-15.335h195.212V377.993z M215.996,259.195H26.315l29.815-81.991h30.269h129.598V259.195z
			M390.998,431.992c-22.605,0-40.995-18.39-40.995-40.995c0-1.354,0.07-2.692,0.199-4.013l0.058-0.526
		c0.003-0.029,0.008-0.059,0.011-0.088c0.07-0.624,0.153-1.244,0.249-1.858c0.009-0.055,0.02-0.109,0.029-0.164
		c0.093-0.575,0.196-1.146,0.312-1.711c3.172-15.25,14.844-27.422,29.82-31.319c0.05-0.012,0.098-0.026,0.148-0.039
		c0.562-0.144,1.128-0.273,1.699-0.393c0.114-0.023,0.226-0.05,0.34-0.072c0.512-0.103,1.029-0.194,1.548-0.278
		c0.16-0.026,0.319-0.055,0.481-0.079c0.485-0.073,0.973-0.131,1.463-0.187c0.189-0.021,0.375-0.048,0.565-0.066
		c0.491-0.049,0.986-0.082,1.482-0.114c0.184-0.011,0.366-0.029,0.549-0.039c0.676-0.033,1.357-0.052,2.041-0.052
		c0.684,0,1.365,0.018,2.041,0.052c0.185,0.009,0.367,0.027,0.55,0.039c0.496,0.031,0.991,0.064,1.481,0.113
		c0.19,0.018,0.377,0.045,0.566,0.066c0.49,0.056,0.977,0.114,1.461,0.187c0.162,0.024,0.322,0.054,0.484,0.08
		c0.518,0.084,1.034,0.173,1.545,0.277c0.115,0.023,0.228,0.049,0.343,0.073c0.569,0.12,1.136,0.248,1.695,0.392
		c0.051,0.013,0.101,0.026,0.151,0.04c14.977,3.897,26.648,16.072,29.819,31.325c0.107,0.522,0.201,1.05,0.288,1.581
		c0.016,0.099,0.037,0.198,0.053,0.297c0.093,0.591,0.172,1.187,0.24,1.786c0.007,0.059,0.016,0.117,0.022,0.176l0.054,0.487
		c0.13,1.325,0.2,2.667,0.2,4.025C431.993,413.602,413.603,431.992,390.998,431.992z M496.792,377.993h-51.109
		c-0.053-0.224-0.117-0.443-0.172-0.666c-0.061-0.242-0.124-0.484-0.188-0.725c-0.194-0.738-0.403-1.469-0.625-2.195
		c-0.017-0.055-0.032-0.109-0.05-0.164c-6.043-19.488-22.271-34.173-42.24-38.282c-0.108-0.022-0.217-0.042-0.325-0.064
		c-0.736-0.147-1.476-0.28-2.221-0.397c-0.229-0.037-0.459-0.071-0.689-0.104c-0.64-0.093-1.283-0.174-1.928-0.245
		c-0.276-0.03-0.552-0.063-0.828-0.089c-0.638-0.061-1.278-0.107-1.922-0.147c-0.265-0.016-0.527-0.039-0.792-0.051
		c-0.897-0.043-1.798-0.069-2.705-0.069c-0.907,0-1.808,0.026-2.705,0.069c-0.265,0.012-0.527,0.034-0.792,0.051
		c-0.644,0.04-1.286,0.086-1.923,0.147c-0.277,0.026-0.553,0.059-0.828,0.089c-0.647,0.071-1.29,0.153-1.929,0.246
		c-0.23,0.033-0.459,0.068-0.688,0.104c-0.746,0.118-1.487,0.251-2.224,0.398c-0.107,0.021-0.215,0.041-0.322,0.063
		c-19.969,4.108-36.199,18.794-42.242,38.284c-0.016,0.053-0.032,0.107-0.049,0.159c-0.223,0.727-0.432,1.46-0.627,2.2
		c-0.064,0.239-0.126,0.48-0.187,0.721c-0.056,0.223-0.12,0.443-0.172,0.668H231.202V274.403h164.076l47.513,14.253v32.141
		c0,16.103,13.1,29.203,29.203,29.203h24.798V377.993z"/>
	<rect x="245.202" y="291.596" width="21.6" height="15.208"/>
	<rect x="180.406" y="291.596" width="21.6" height="15.208"/>
</svg>