<svg viewBox="0 0 480 480" xmlns="http://www.w3.org/2000/svg" fill="#834c69">
	<path d="m448 368c-6.835938.019531-13.480469 2.246094-18.945312 6.351562l-32.640626-23.316406c9.191407-12.851562 16.761719-26.789062 22.539063-41.496094l.140625-.339843c1.859375-4.796875 3.546875-9.769531 
	5.039062-14.808594v-.019531c.242188-.800782.46875-1.601563.695313-2.402344l.003906-.03125.003907-.011719c1.484374-5.296875 
	2.726562-10.746093 3.753906-16.203125.082031-.203125.0625-.445312.132812-.65625.066406-.351562.152344-.703125.214844-1.054687v-.003907l.011719-.058593c.128906-.4375.21875-.886719.269531-1.34375l-.019531-.101563c.835937-4.917968 
	1.476562-9.816406 1.917969-14.597656.015624-.132812.042968-.265625.054687-.398438l.0625-.820312c.515625-5.789062.765625-11.25.765625-16.6875-.058594-45.261719-16.097656-89.046875-45.285156-123.636719l39.976562-55.351562c4.167969 
	1.949219 8.707032 2.972656 13.308594 2.988281 17.671875 0 32-14.328125 32-32s-14.328125-32-32-32-32 14.328125-32 32c.019531 6.800781 2.222656 13.414062 
	6.285156 18.867188l-38.59375 53.4375c-23.972656-24.058594-53.910156-41.308594-86.746094-49.988282h-.011718c-12.101563-3.167968-24.484375-5.148437-36.972656-5.910156-3.960938-.246094-7.945313-.40625-11.960938-.40625-105.988281.121094-191.878906 
	86.011719-192 192 0 3.476562.101562 6.925781.28125 10.328125l.070312.957031h.003907l.027343.40625v.007813l.007813.078125c.007813.183594.023437.367187.03125.550781.015625.214844.039063.429687.054687.644531.132813 2.023438.3125 4.148438.542969 
	6.429688.042969.445312.0625.898437.113281 1.34375v.023437l.03125.105469.039063.375h-.007813.007813l.011719.121094-.003906.03125c.367187 3.277344.832031 6.570312 1.375 9.859375.125.765625.292968 1.503906.425781 2.265625.398437 2.25.789062 4.503906 
	1.269531 6.738281.046875.242187.101562.484375.15625.726563l.019531.082031.003907.027343v.007813c2.355468 10.800781 5.644531 21.378906 9.828124 31.613281.105469.25.222657.496094.351563.734375 9.84375 23.449219 24.25 44.710938 42.386719 
	62.542969h-65.027344c-22.089844 0-40 17.910156-40 40s17.910156 40 40 40h148c2.207031.003906 3.996094 1.792969 4 4 .011719 11.039062 8.960938 19.988281 20 20h76c4.417969 0 8-3.582031 
	8-8s-3.582031-8-8-8h-76c-2.207031-.003906-3.996094-1.792969-4-4-.011719-11.039062-8.960938-19.988281-20-20h-148c-13.253906 0-24-10.746094-24-24s10.746094-24 24-24h83.273438c33.433593 25.839844 74.472656 39.902344 116.726562 40 4.015625 0 8-.160156 
	11.960938-.40625 12.484374-.761719 24.867187-2.742188 36.96875-5.90625l.015624-.003906c38.191407-10.046875 72.3125-31.710938 97.652344-61.996094l32.339844 23.097656c-1.917969 4.144532-2.921875 8.648438-2.9375 13.214844 0 17.671875 14.328125 
	32 32 32s32-14.328125 32-32-14.328125-32-32-32zm-64.585938-26.25-83.546874-59.679688c-.105469-.558593-.265626-1.097656-.363282-1.660156-.101562-.589844-.183594-1.191406-.28125-1.789062-.996094-5.972656-1.800781-12.023438-2.328125-18.15625-.03125-.363282-.042969-.734375-.074219-1.097656-.523437-6.394532-.820312-12.847657-.820312-19.367188 
	0-5.996094.304688-12.011719.769531-18.007812.140625-1.789063.351563-3.566407.53125-5.351563.238281-2.378906.597657-4.734375.910157-7.105469 46.9375 16.199219 84.9375 51.328125 104.773437 96.847656-5.144531 12.5-11.710937 24.367188-19.570313 
	35.367188zm32.398438-109.929688c-13.417969-29.019531-33.890625-54.21875-59.550781-73.292968l20.773437-28.761719c23.40625 29.054687 36.980469 64.789063 38.777344 102.054687zm8.1875-199.820312c-.070312-6.898438 4.246094-13.082031 10.746094-15.394531 
	6.503906-2.3125 13.753906-.242188 18.054687 5.152343 4.304688 5.394532 4.707031 12.921876 1.007813 18.746094-3.699219 5.824219-10.691406 8.65625-17.402344 7.054688l2.078125-2.875c2.585937-3.582032 1.78125-8.582032-1.800781-11.167969-3.582032-2.585937-8.582032-1.78125-11.167969 
	1.800781l-.8125 1.121094c-.445313-1.4375-.679687-2.933594-.703125-4.4375zm-57.816406 85.46875-23.136719 32.03125c-7.160156-4.546875-14.613281-8.613281-22.3125-12.179688.746094-1.410156 1.453125-2.855468 2.226563-4.238281.683593-1.222656 1.363281-2.445312 
	2.070312-3.644531 2.125-3.601562 4.339844-7.109375 6.667969-10.5.261719-.378906.496093-.78125.757812-1.15625 2.589844-3.714844 5.332031-7.265625 8.160157-10.710938.8125-.988281 1.65625-1.929687 2.484374-2.894531 1.191407-1.382812 2.445313-2.6875 
	3.675782-4.027343 6.886718 5.289062 13.375 11.078124 19.40625 17.320312zm-35.40625-23.503906c-.980469 1.144531-1.949219 2.292968-2.902344 3.460937-2.53125 3.105469-4.976562 6.304688-7.328125 9.605469-.53125.738281-1.09375 1.445312-1.613281 2.195312-2.804688 4.050782-5.460938 
	8.253907-7.996094 12.578126-.652344 1.113281-1.257812 2.265624-1.890625 3.394531-1.125 2.003906-2.292969 3.96875-3.359375 6.027343-8.289062-2.949218-16.773438-5.320312-25.394531-7.09375.308593-.480468.625-.941406.9375-1.417968 2.042969-3.144532 4.171875-6.199219 
	6.378906-9.167969.511719-.683594 1.003906-1.386719 1.523437-2.0625 2.539063-3.3125 5.171876-6.496094 7.902344-9.558594.605469-.679687 1.226563-1.335937 1.839844-2.003906 2.566406-2.789063 5.195312-5.480469 7.902344-8.03125.355468-.332031.691406-.691406 1.046875-1.019531 
	2.984375-2.761719 6.070312-5.34375 9.207031-7.800782.34375-.269531.691406-.527343 1.035156-.792968 5.238282 2.597656 10.347656 5.453125 15.324219 8.574218-.902344 1.003907-1.734375 2.085938-2.613281 3.113282zm-30.574219-17.695313c-3.039063 2.671875-6.023437 
	5.441407-8.914063 8.371094-.203124.207031-.417968.398437-.621093.605469-3.039063 3.117187-5.953125 6.410156-8.804688 9.792968-.734375.871094-1.453125 1.75-2.171875 2.636719-2.679687 3.300781-5.292968 6.683594-7.777344 10.207031-.144531.203126-.300781.394532-.441406.597657-2.597656 
	3.707031-5.042968 7.566406-7.40625 11.5-.289062.480469-.617187.917969-.902344 1.398437-7.242187-.894531-14.53125-1.351562-21.828124-1.378906-2.09375 0-4.210938.042969-6.386719.132812 1.269531-1.886718 2.550781-3.757812 3.875-5.570312.457031-.628906.890625-1.285156 1.355469-1.902344 
	2.15625-2.875 4.382812-5.652344 6.679687-8.328125.660156-.777343 1.355469-1.507812 2.03125-2.265625 1.679687-1.898437 3.386719-3.761718 5.132813-5.554687.886718-.90625 1.789062-1.789063 2.691406-2.671875 1.644531-1.601563 3.3125-3.160156 5.007812-4.675782.914063-.816406 1.824219-1.632812 
	2.753906-2.421874 1.949219-1.65625 3.941407-3.234376 5.957032-4.769532.679687-.519531 1.34375-1.074218 2.03125-1.578125 2.71875-1.996093 5.496094-3.878906 8.320312-5.652343.597656-.371094 1.214844-.699219 1.816406-1.066407 1.765626-1.066406 3.5625-2.058593 5.363282-3.035156 4.535156 
	1.289063 9.050781 2.765625 13.511718 4.433594-.4375.375-.839843.816406-1.273437 1.195312zm-36.460937-9.285156c-.859376.625-1.707032 1.277344-2.558594 1.921875-2.1875 1.65625-4.34375 3.375-6.464844 5.160156-.820312.6875-1.640625 1.363282-2.449219 2.066406-2.785156 2.4375-5.523437 4.953126-8.175781 
	7.605469-.21875.222657-.425781.460938-.644531.679688-2.4375 2.460937-4.800781 5.027343-7.121094 7.667969-.777344.886718-1.535156 1.792968-2.296875 2.695312-1.832031 2.171875-3.625 4.402344-5.375 6.683594-.683594.890625-1.378906 1.765625-2.050781 2.671875-2.3125 3.125-4.5625 6.328125-6.722657 
	9.644531-.269531.417969-.523437.859375-.792968 1.28125-1.453125 2.269531-2.890625 4.554688-4.269532 6.910156-11.519531 1.582032-22.871093 4.207032-33.917968 7.839844 1.488281-2.539062 3-5.054688 4.582031-7.484375.636719-.976563 1.226563-2.007813 1.878906-2.964844 2.746094-4.054687 5.621094-7.9375 8.621094-11.652343.683594-.847657 
	1.421875-1.617188 2.117187-2.445313 2.359376-2.804687 4.773438-5.539063 7.269532-8.132813 1.117187-1.15625 2.269531-2.25 3.414062-3.363281 2.199219-2.148437 4.445313-4.230469 6.742188-6.214843 1.257812-1.085938 2.527344-2.148438 3.8125-3.1875 2.363281-1.902344 4.789062-3.699219 7.242187-5.425782 1.238281-.875 
	2.460938-1.78125 3.722657-2.605468 3.046874-2 6.164062-3.832032 9.328124-5.554688.707032-.382812 1.386719-.835938 2.097657-1.207031 3.644531-1.894531 7.386719-3.542969 11.167969-5.066407 4.148437.300782 8.28125.742188 12.375 1.328126-.519532.367187-1.015626.773437-1.53125 1.148437zm-45.929688-1.59375c-3.332031 
	2.328125-6.574219 4.824219-9.753906 7.4375-.621094.507813-1.210938 1.070313-1.824219 1.589844-3.140625 2.660156-6.199219 5.460937-9.171875 8.398437-.960938.945313-1.914062 1.890625-2.855469 2.863282-3.269531 3.375-6.457031 6.867187-9.503906 10.5625-.175781.214843-.363281.40625-.539063.621093-3.195312 3.910157-6.21875 
	8.046875-9.152343 12.296875-.785157 1.140625-1.542969 2.304688-2.308594 3.46875-2.339844 3.546875-4.582031 7.199219-6.734375 10.960938-.550781.964844-1.132812 1.894531-1.667969 2.875-2.269531 4.121094-4.453125 8.332031-6.488281 12.6875-42.355469 20.507812-75.726562 55.824218-93.804688 99.273437.902344-87.980469 66.539063-161.824219 153.804688-173.035156zm-149.335938 213.859375c10.722657-56.941406 48.824219-104.9375 101.851563-128.300781 53.023437-23.359375 114.15625-19.078125 163.410156 11.441406l-12.222656 16.925781c-2.585937 3.582032-1.78125 8.582032 1.800781 11.167969 3.582032 2.585937 8.582032 1.78125 11.167969-1.800781l12.476563-17.277344c33.273437 24.882812 56.625 60.777344 65.882812 101.28125-.765625 4.050781-1.707031 8.003906-2.722656 11.890625-24.804688-45.378906-66.734375-78.945313-116.441406-93.222656h-.019532c-15.867187-4.488281-32.242187-6.917969-48.726562-7.222657h-.003906l-1.25-.054687c-.773438-.039063-1.554688-.078125-2.34375-.078125-16.054688.023438-32.042969 2.054688-47.59375 6.046875l-.019532.007813c-18.722656 4.777343-36.609375 12.382812-53.042968 22.546874-29.699219 18.394532-53.878907 44.46875-69.992188 75.464844-.820312-2.898437-1.535156-5.851562-2.210938-8.816406zm83.335938 112.75h8.1875c4.417969 0 8-3.582031 8-8s-3.582031-8-8-8h-31.167969c-21.890625-17.796875-39.199219-40.582031-50.472656-66.445312 12.175781-29.558594 32.105469-55.28125 57.6875-74.453126-.03125 1.644532-.046875 3.277344-.046875 4.898438 0 5.121094.1875 10.191406.488281 15.226562.09375 1.617188.261719 3.210938.386719 4.816407.269531 3.425781.582031 6.835937.984375 10.210937.21875 1.828125.480469 3.640625.738281 5.453125.449219 3.160157.960938 6.296875 1.527344 9.40625.324219 1.792969.652344 3.574219 1.019531 5.347657.664063 3.234374 1.414063 6.421874 2.203125 9.59375.378906 1.53125.730469 3.074218 1.136719 4.589843 1.121094 4.148438 2.347656 8.234375 3.679687 12.261719.15625.46875.28125.957031.441407 1.425781 1.515625 4.492188 3.179687 8.886719 4.945312 13.207031.519531 1.265626 1.09375 2.488282 1.632813 3.738282 1.304687 3.027344 2.648437 6.023437 4.074218 8.960937.722657 1.488281 1.484376 2.945313 2.238282 4.40625 1.367187 2.652344 2.78125 5.261719 4.242187 7.828125.828125 1.449219 1.664063 2.890625 2.523438 4.3125 1.558593 2.582032 3.183593 5.09375 4.84375 7.578125.835937 1.25 1.652343 2.523438 2.511719 3.746094 2.089843 2.976563 4.269531 5.855469 6.503906 8.671875.492187.625.953125 1.289062 1.457031 1.90625 2.761719 3.394531 5.628906 6.660156 8.601563 9.796875.8125.859375 1.667968 1.652344 2.492187 2.492187 2.199219 2.238282 4.429687 4.429688 6.730469 6.527344 1.136718 1.03125 2.304687 2.015625 3.464844 3.015625 2.097656 1.800781 4.21875 3.554688 6.394531 5.238281 1.261719.980469 2.539062 1.9375 3.824219 2.875.859374.628907 1.683593 1.316407 2.554687 1.921876-23.226563-3.054688-45.609375-10.722657-65.828125-22.554688zm101.066406 23.492188c-1.664062-.667969-3.28125-1.445313-4.914062-2.1875-1.816406-.824219-3.65625-1.59375-5.433594-2.507813-1.816406-.933594-3.570312-2.011719-5.347656-3.035156-1.734375-1-3.492188-1.941407-5.183594-3.027344-1.746094-1.113281-3.421875-2.367187-5.121094-3.566406-1.648437-1.164063-3.324218-2.273438-4.929687-3.515625-1.648438-1.277344-3.226563-2.6875-4.832031-4.042969-1.566407-1.328125-3.164063-2.601563-4.6875-4-1.558594-1.4375-3.039063-2.996094-4.550782-4.507813-1.46875-1.46875-2.976562-2.890624-4.398437-4.429687-1.46875-1.585937-2.847657-3.292969-4.265625-4.953125-1.367188-1.605469-2.773438-3.15625-4.09375-4.828125-1.363282-1.722656-2.632813-3.558594-3.941406-5.351563-1.265626-1.730468-2.570313-3.414062-3.78125-5.207031-1.265626-1.863281-2.425782-3.832031-3.628907-5.761719-1.144531-1.835937-2.339843-3.625-3.429687-5.515624-1.152344-1.996094-2.199219-4.089844-3.289063-6.140626-1.023437-1.933593-2.101562-3.820312-3.070312-5.804687-1.03125-2.109375-1.949219-4.308594-2.917969-6.472656-.902344-2.023438-1.859375-4.003907-2.703125-6.070313-.917969-2.242187-1.710937-4.566406-2.558594-6.859375-.765625-2.074219-1.589843-4.109375-2.296875-6.222656-.800781-2.398437-1.46875-4.875-2.191406-7.316406-.613281-2.085938-1.296875-4.132813-1.851562-6.246094-.683594-2.59375-1.226563-5.253906-1.820313-7.886719-.457031-2.039062-.988281-4.042968-1.390625-6.105468-.554688-2.839844-.957031-5.742188-1.410156-8.625-.296875-1.914063-.675782-3.800782-.925782-5.730469-.421874-3.257813-.679687-6.566407-.964843-9.863281-.136719-1.605469-.359375-3.1875-.464844-4.800782-.320313-4.933594-.480469-9.902344-.484375-14.910156 0-5.195312.320312-10.574219.679688-15.945312 10.53125-6.171876 21.679687-11.21875 33.265624-15.058594-.082031.640625-.105468 1.289062-.183593 1.933594-.445313 3.792968-.804688 7.59375-1.074219 11.402343-.089844 1.292969-.183594 2.582031-.253906 3.875-.257813 4.601563-.433594 9.203125-.433594 13.792969 0 4.851562.160156 9.664062.429688 14.441406.089843 1.574219.257812 3.121094.378906 4.683594.242187 3.199219.496094 6.390625.855468 9.546875.210938 1.828125.484376 3.628906.734376 5.4375.390624 2.863281.796874 5.714844 1.285156 8.535156.324218 1.890625.699218 3.757813 1.070312 5.632813.53125 2.703125 1.09375 5.386718 1.714844 8.050781.4375 1.878906.902344 3.738281 1.382812 5.597656.679688 2.617188 1.398438 5.214844 2.160157 7.785157.535156 1.8125 1.078125 3.617187 1.65625 5.40625.835937 2.589843 1.730469 5.140624 2.652343 7.675781.613282 1.695312 1.210938 3.390625 1.863282 5.058593 1.023437 2.636719 2.128906 5.214844 3.246094 7.785157.652343 1.496093 1.269531 3.011719 1.949218 4.488281 1.355469 2.933594 2.804688 5.796875 4.277344 8.640625.53125 1.03125 1.019531 2.09375 1.570312 3.109375 2.070313 3.84375 4.242188 7.59375 6.523438 11.25.390625.628906.824219 1.214844 1.21875 1.835938 1.910156 2.984374 3.867188 5.917968 5.914062 8.765624.855469 1.191407 1.769532 2.324219 2.652344 3.492188 1.664063 2.199219 3.335938 4.390625 5.078125 6.5 1.054688 1.269531 2.152344 2.488281 3.234375 3.722656 1.667969 1.90625 3.347656 3.792969 5.085938 5.613282 1.179687 1.238281 2.386718 2.433593 3.597656 3.632812 1.734375 1.714844 3.492188 3.390625 5.289062 5.019531 1.273438 1.15625 2.5625 2.289063 3.867188 3.398438 1.832031 1.558593 3.699219 3.0625 5.589844 4.535156 1.34375 1.039063 2.683594 2.078125 4.050781 3.074219.648437.46875 1.261719.992187 1.914063 1.453125-4.09375.585937-8.226563 1.023437-12.363282 1.324219zm35.09375-6.136719c-1.359375-.734375-2.699218-1.507813-4.03125-2.292969-1.550781-.90625-3.109375-1.796875-4.625-2.765625-1.71875-1.101563-3.382812-2.296875-5.054687-3.472656-1.480469-1.046875-2.972657-2.066407-4.417969-3.167969-1.628906-1.246094-3.199219-2.582031-4.78125-3.902344-1.402344-1.171875-2.828125-2.316406-4.195312-3.546875-1.53125-1.378906-3-2.84375-4.484376-4.292969-1.328124-1.296874-2.679687-2.566406-3.96875-3.917968-1.433593-1.503906-2.800781-3.089844-4.179687-4.65625-1.25-1.414063-2.523437-2.800782-3.726563-4.265625-1.339843-1.628907-2.605468-3.339844-3.894531-5.027344-1.152343-1.519531-2.332031-3.003906-3.445312-4.570313-1.234375-1.738281-2.394531-3.558593-3.574219-5.359374-1.066406-1.617188-2.160156-3.210938-3.179688-4.875-1.128906-1.84375-2.171874-3.765626-3.246093-5.660157-.964844-1.714843-1.96875-3.394531-2.886719-5.148437-1.027344-1.960938-1.964844-3.992188-2.933594-6-.859375-1.78125-1.753906-3.535156-2.566406-5.355469-.917969-2.066406-1.742188-4.199219-2.601562-6.3125-.75-1.847656-1.539063-3.664063-2.242188-5.546875-.8125-2.183594-1.519531-4.425781-2.265625-6.652344-.632813-1.882812-1.308594-3.738281-1.890625-5.65625-.703125-2.304687-1.292969-4.667968-1.921875-7.011718-.511719-1.90625-1.074219-3.785157-1.535156-5.71875-.585938-2.441407-1.054688-4.9375-1.558594-7.417969-.386719-1.894531-.832031-3.761719-1.171875-5.675781-.464844-2.617188-.800781-5.28125-1.175781-7.933594-.261719-1.835938-.585938-3.648438-.804688-5.5-.34375-2.929688-.550781-5.910156-.785156-8.882813-.128906-1.613281-.324219-3.203125-.417969-4.824219-.269531-4.613281-.40625-9.261718-.410156-13.945312 0-6.410156.316406-12.84375.851562-19.261719.175782-2.109375.496094-4.203125.730469-6.308593.371094-3.386719.820313-6.761719 1.34375-10.125 10.597657-2.386719 21.394531-3.789063 32.253907-4.195313-.054688.332031-.070313.671875-.121094 1.003906-.894532 5.683594-1.566406 11.417969-2.066406 17.1875-.105469 1.25-.1875 2.496094-.277344 3.75-.425782 5.960938-.714844 11.941407-.714844 17.949219 0 4.304688.125 8.59375.34375 12.859375.074219 1.414063.21875 2.8125.316406 4.226563.195313 2.835937.390625 5.671874.683594 8.484374.175781 1.671876.414062 3.324219.621094 4.984376.316406 2.53125.628906 5.058593 1.019531 7.5625.273437 1.742187.601563 3.464843.910156 5.195312.425781 2.394531.859375 4.785156 1.355469 7.152344.367188 1.757812.78125 3.496094 1.183594 5.234375.539062 2.300781 1.089844 4.589843 1.6875 6.863281.464844 1.746094.957031 3.480469 1.457031 5.210938.644531 2.222656 1.3125 4.429687 2.015625 6.621093.550781 1.710938 1.121094 3.410157 1.707031 5.101563.753907 2.167968 1.539063 4.3125 2.351563 6.441406.632812 1.65625 1.269531 3.300781 1.9375 4.933594.867187 2.121094 1.777344 4.210937 2.703125 6.289062.703125 1.578125 1.398437 3.160156 2.136719 4.710938.988281 2.09375 2.03125 4.140625 3.082031 6.183594.757812 1.476562 1.5 2.964843 2.292969 4.414062 1.132812 2.085938 2.328124 4.117188 3.527343 6.152344.789063 1.339844 1.550781 2.703125 2.367188 4.019531 1.34375 2.164063 2.757812 4.261719 4.171875 6.359375.75 1.109375 1.460937 2.25 2.230468 3.339844 1.941407 2.757812 3.964844 5.433594 6.027344 8.058594.292969.371093.566406.769531.859375 1.140624 2.378907 2.972657 4.832031 5.851563 7.371094 8.636719.808594.894531 1.667969 1.722657 2.492187 2.59375 1.753907 1.855469 3.507813 3.707031 5.328126 5.472657 1.074218 1.039062 2.195312 2.011718 3.292968 3.015624 1.332032 1.222657 2.628906 2.496094 3.996094 3.667969-4.457031 1.667969-8.96875 3.144531-13.496094 4.429688zm30.121094-11.648438c-.839844-.644531-1.6875-1.28125-2.515625-1.945312-1.246094-1-2.480469-2.011719-3.699219-3.058594-1.429687-1.226563-2.828125-2.496094-4.214844-3.78125-1.179687-1.09375-2.355468-2.191406-3.503906-3.328125-1.355468-1.335938-2.679687-2.714844-3.992187-4.109375-1.113281-1.183594-2.226563-2.367187-3.308594-3.589844-1.277344-1.441406-2.519531-2.925781-3.753906-4.421875-1.039063-1.261718-2.082031-2.519531-3.09375-3.820312-1.199219-1.539063-2.355469-3.125-3.511719-4.71875-.96875-1.339844-1.949219-2.675782-2.886719-4.050782-1.113281-1.632812-2.179687-3.308593-3.246093-4.984374-.902344-1.414063-1.808594-2.820313-2.671876-4.265626-1.027343-1.710937-2-3.46875-2.976562-5.226562-.828125-1.488281-1.667969-2.964844-2.460938-4.484375-.933593-1.789063-1.808593-3.621094-2.691406-5.445313-.75-1.550781-1.515625-3.085937-2.230468-4.664062-.847657-1.875-1.628907-3.789062-2.425782-5.699219-.664062-1.59375-1.347656-3.175781-1.976562-4.792969-.753906-1.953124-1.441406-3.949218-2.144532-5.933593-.578124-1.636719-1.179687-3.257813-1.722656-4.914063-.660156-2.027344-1.246094-4.09375-1.847656-6.148437-.492188-1.667969-1.011719-3.324219-1.464844-5.011719-.566406-2.105469-1.046875-4.246094-1.554687-6.382812-.398438-1.683594-.832031-3.355469-1.191407-5.058594-.46875-2.207032-.851562-4.453125-1.253906-6.6875-.304687-1.664063-.644531-3.3125-.910156-4.992188-.371094-2.347656-.648438-4.726562-.945312-7.101562-.203126-1.601563-.453126-3.1875-.621094-4.800782-.277344-2.652343-.449219-5.328124-.640625-8.003906-.09375-1.355468-.242188-2.699218-.3125-4.0625-.210938-4.054687-.320313-8.125-.324219-12.222656 0-6.058594.300781-12.09375.761719-18.097656.078125-.992188.132812-1.988282.222656-2.980469.515625-5.769531 1.25-11.488281 2.199219-17.15625.074218-.460937.164062-.917969.242187-1.375 10.464844.597656 20.855469 2.125 31.050781 4.570313-.050781.371093-.066406.746093-.117187 1.121093-.691406 5.011719-1.222656 10.042969-1.605469 15.09375-.078125 1.039063-.132812 2.074219-.199218 3.113281-.332032 5.238282-.554688 10.480469-.554688 15.710938 0 6.824219.316406 13.582031.855469 20.28125.039062.496094.054687 1 .097656 1.5.214844 2.460938.503906 4.902344.789063 7.347656l-5.09375-3.640625c-3.597657-2.554687-8.582032-1.714843-11.144532 1.875-2.5625 3.589844-1.734375 8.578125 1.847656 11.148438l18.023438 12.875c.675781 3.195312 1.414062 6.363281 2.214844 9.503906.222656.871094.433594 1.746094.664062 2.613281 1.539063 5.769532 3.289063 11.433594 5.25 16.988282.308594.878906.621094 1.753906.941406 2.628906 2.015626 5.515625 4.226563 10.90625 6.636719 16.175781.371094.808594.753907 1.605469 1.132813 2.40625 2.496094 5.273437 5.183594 10.410156 8.058594 15.402344.382812.667969.789062 1.3125 1.183593 1.96875 3.003907 5.054687 6.179688 9.96875 9.578125 14.679687.316406.4375.65625.851563.972656 1.289063 3.570313 4.855469 7.316407 9.550781 11.296876 13.996093l.085937.109376c-4.960937 3.109374-10.0625 5.964843-15.296875 8.558593zm28.59375-17.785156c-.175781-.195313-.359375-.378906-.535156-.570313-3.546875-3.894531-6.90625-7.996093-10.105469-12.25-.464844-.621093-.9375-1.230468-1.398437-1.859374-3.113282-4.253907-6.046876-8.675782-8.808594-13.257813-.429688-.710937-.859375-1.421875-1.28125-2.140625-2.695313-4.601562-5.214844-9.347656-7.550782-14.230469-.367187-.765625-.722656-1.535156-1.078124-2.308593-2.285157-4.933594-4.386719-9.992188-6.300782-15.175782-.285156-.769531-.550781-1.546875-.828125-2.324218-1.144531-3.230469-2.089843-6.574219-3.085937-9.890626l67.878906 48.484376c-8.050781 9.425781-17.066406 17.980468-26.90625 25.523437zm101.3125 36.078125c-4.882812.035156-9.507812-2.175781-12.546875-5.996094-3.039063-3.820312-4.152344-8.828125-3.019531-13.574218l2.917968 2.082031c3.597657 2.554687 8.582032 1.714843 11.144532-1.875 2.5625-3.589844 1.734375-8.578125-1.847656-11.148438l-1.09375-.78125c1.441406-.445312 2.9375-.683593 4.445312-.707031 8.835938 0 16 7.164062 16 16s-7.164062 16-16 16zm0 0"/></svg>