<svg xmlns="http://www.w3.org/2000/svg" viewBox="0 0 512.002 512.002" fill="#834c69">
	<path d="M204.57,234.136c-3.229-2.595-7.95-2.082-10.544,1.147c-6.759,8.409-16.316,13.232-26.221,13.232
		c-9.904,0-19.461-4.823-26.22-13.232c-2.595-3.228-7.315-3.743-10.544-1.147c-3.229,2.595-3.742,7.316-1.147,10.544
		c9.62,11.97,23.438,18.834,37.91,18.834c14.473,0,28.292-6.865,37.913-18.834C208.312,241.451,207.799,236.731,204.57,234.136z"/>
	<path d="M380.964,234.136c-3.229-2.595-7.95-2.082-10.544,1.147c-6.759,8.409-16.316,13.232-26.221,13.232
		c-9.905,0-19.462-4.823-26.221-13.232c-2.595-3.228-7.316-3.743-10.544-1.147c-3.229,2.595-3.742,7.316-1.147,10.544
		c9.621,11.97,23.439,18.834,37.912,18.834c14.473,0,28.291-6.865,37.912-18.834C384.706,241.451,384.193,236.731,380.964,234.136z
		"/>
	<path d="M272.02,328.68c-17.397,0-31.55,14.153-31.55,31.55v8.017c0,17.396,14.153,31.55,31.55,31.55
		c17.397,0,31.55-14.154,31.55-31.55v-8.017C303.57,342.834,289.417,328.68,272.02,328.68z M288.571,368.247
		c0,9.125-7.424,16.55-16.55,16.55s-16.55-7.425-16.55-16.55v-8.017c0-9.125,7.424-16.55,16.55-16.55
		c9.126,0,16.55,7.424,16.55,16.55V368.247z"/>
	<path d="M344.169,120.249h-18.053L350.41,83.81c1.534-2.301,1.677-5.26,0.372-7.699c-1.305-2.438-3.847-3.961-6.613-3.961h-32.066
		c-4.142,0-7.5,3.358-7.5,7.5c0,4.142,3.358,7.5,7.5,7.5h18.053l-24.293,36.439c-1.534,2.301-1.677,5.26-0.373,7.699
		c1.305,2.438,3.847,3.961,6.613,3.961h32.066c4.142,0,7.5-3.358,7.5-7.5C351.669,123.607,348.311,120.249,344.169,120.249z"/>
	<path d="M504.501,48.1h-18.053l24.293-36.439c1.534-2.301,1.677-5.26,0.373-7.699C509.809,1.523,507.268,0,504.502,0h-32.066
		c-4.142,0-7.5,3.358-7.5,7.5s3.357,7.5,7.499,7.5h18.053l-24.293,36.44c-1.534,2.301-1.677,5.26-0.373,7.699
		c1.305,2.438,3.847,3.961,6.613,3.961h32.066c4.142,0,7.5-3.358,7.5-7.5C512.001,51.458,508.643,48.1,504.501,48.1z"/>
	<path d="M437.017,74.986c-2.929-2.93-7.678-2.93-10.607-0.001c-2.929,2.929-2.929,7.678,0,10.606
		c3.448,3.448,6.764,6.992,9.975,10.608H390.25l56.359-84.539c1.535-2.301,1.677-5.26,0.373-7.699
		C445.676,1.523,443.135,0,440.369,0h-64.133c-4.142,0-7.5,3.358-7.5,7.5s3.358,7.5,7.5,7.5h50.119l-21.7,32.55
		C356.749,13.314,298.194-3.352,239.012,0.56C177.126,4.648,118.863,31.079,74.958,74.985
		C28.643,121.3,2.063,182.845,0.115,248.282c-1.939,65.143,20.642,127.887,63.582,176.674c1.482,1.685,3.552,2.545,5.633,2.545
		c1.76,0,3.527-0.616,4.952-1.87c3.109-2.737,3.412-7.476,0.675-10.585c-40.419-45.923-61.673-104.989-59.848-166.318
		c1.833-61.6,26.855-119.536,70.455-163.136c41.333-41.333,96.18-66.216,154.437-70.064c55.88-3.688,111.168,12.091,156.332,44.506
		L369.996,99.54c-1.534,2.301-1.677,5.26-0.373,7.699c1.305,2.438,3.847,3.961,6.613,3.961h72.445
		c31.348,41.533,48.321,91.866,48.321,144.815c0,64.377-25.07,124.901-70.591,170.423c-43.6,43.6-101.537,68.622-163.136,70.455
		c-61.338,1.827-120.395-19.429-166.318-59.848c-3.108-2.736-7.848-2.435-10.585,0.675c-2.737,3.109-2.435,7.848,0.675,10.585
		c46.852,41.236,106.575,63.697,168.933,63.697c2.576,0,5.157-0.039,7.741-0.115c65.437-1.948,126.981-28.527,173.296-74.842
		c48.354-48.355,74.985-112.646,74.985-181.029C512.002,187.632,485.372,123.341,437.017,74.986z"/>
</svg>