<svg viewBox="-64 0 511 511.93774" xmlns="http://www.w3.org/2000/svg" fill="#834c69">
    <path d="m21.84375 354.769531c.28125.136719.570312.265625.851562.375.742188.285157 75.496094 28.308594 153.507813 67.671875 49.695313 25.335938 97.96875 53.378906 144.597656 83.992188.292969.199218.597657.378906.914063.539062 5.558594 2.933594 11.734375 4.507813 18.019531 4.589844 14.308594-.550781 27.183594-8.832031 33.613281-21.625 1.398438-2.707031 1.242188-5.957031-.40625-8.523438-1.648437-2.5625-4.542968-4.054687-7.585937-3.90625-3.046875.144532-5.78125 1.90625-7.179688 4.613282-2.335937 5.171875-6.695312 9.152344-12.054687 11.011718-5.359375 1.859376-11.25 1.433594-16.285156-1.179687-3.453126-2.304687-25.257813-16.734375-57.050782-35.679687 2.660156-1.371094 5.128906-3.09375 7.335938-5.117188 6.800781-6.480469 10.652344-15.464844 10.660156-24.859375v-58.164063c-.5-19.433593-8.78125-37.859374-22.980469-51.136718l-44.492187-41.507813c-.054688 0-.070313-.101562-.121094-.152343-1.46875-1.4375-2.378906-3.347657-2.558594-5.394532-.171875-1.917968.300782-3.835937 1.347656-5.453125l3.105469-4.71875c2.433594-3.726562 7.355469-4.902343 11.210938-2.679687l29.296875 17.023437c20.109375 11.644531 45.167968 10.46875 64.101562-3.003906l30.03125-21.417969 10.578125-7.550781c14.023438-9.792969 18.542969-28.503906 10.535157-43.617187-8.007813-15.113282-26.027344-21.878907-42.003907-15.777344-3.214843 1.097656-6.257812 2.636718-9.046875 4.574218l-13.199218 9.429688-.050782.0625-21.625 15.453125-43.265625-25.105469c25.054688-1.902344 46.167969-19.4375 52.636719-43.71875 2.136719-.773437 4.09375-1.972656 5.75-3.53125 3.378906-3.199218 5.316406-7.628906 5.367188-12.277344.101562-16.847656-3.472657-57.960937-39.066407-75.871093-1.253906-.625-2.558593-1.179688-3.855469-1.707031-.507812-13.859376-12.007812-24.761719-25.875-24.53125-13.863281.234374-24.992187 11.515624-25.035156 25.382812.035156 1.144531.148438 2.285156.339844 3.414062-13 9.597657-23.394531 22.296876-30.230469 36.941407-2.308593 4.730469-2.289062 10.261719.050781 14.976562-4.941406 12.589844-5.417968 26.492188-1.351562 39.390625l-7.261719-5.121094c-9.671875-6.804687-17.960937-15.386718-24.421875-25.292968l-6.457031-9.882813c-10.042969-15.339843-15.382813-33.28125-15.363281-51.617187v-18.5c.433594-18.515625-13.703125-34.125-32.167969-35.5312502-9.300781-.5468748-18.40625 2.8085942-25.132813 9.2578122-6.792968 6.472656-10.644531 15.441406-10.65625 24.824219v37.238281c-.03125 21.898438 6.421876 43.3125 18.542969 61.550782l51.328125 77.40625c2.324219 3.503906 3.277344 7.742187 2.679688 11.902343l-1.808594 12.75c-.324219 1.980469-.996094 3.890625-1.980469 5.640625-.078125.121094-.1875.1875-.265625.316406-.804687 1.402344-1.78125 2.699219-2.910156 3.855469-.144531.144531-.289062.292969-.441406.425781-.550782.53125-1.144532 1.015626-1.769532 1.453126-1.03125.734374-2.144531 1.347656-3.316406 1.835937l-11.09375 4.265625c-29.464844 11.46875-44.929687 43.871094-35.3125 73.992188l7.996094 25.121093 4.574219 14.371094c-36.035157-15.546875-62.207031-25.515625-66.015625-26.957031-5.101563-2.402344-8.972656-6.820313-10.679688-12.191406-1.707031-5.375-1.101562-11.214844 1.679688-16.121094 1.6875-2.75 1.683594-6.21875-.015625-8.960938-1.699219-2.746094-4.800781-4.296875-8.015625-4.007812-3.214844.285156-5.992188 2.363281-7.175782 5.363281-4.8437495 9.011719-5.773437 19.613281-2.570312 29.328125 3.199219 9.714844 10.25 17.6875 19.5 22.050781zm122.46875-1.910156c2.921875 8.582031-1.375 17.949219-9.785156 21.332031-.257813.105469-.480469.25-.742188.34375-4.207031 1.457032-8.816406 1.179688-12.820312-.769531-.417969-.203125-.78125-.496094-1.175782-.734375-.589843-.308594-1.160156-.652344-1.707031-1.03125-2.644531-2.027344-4.632812-4.792969-5.71875-7.945312l-2.394531-7.515626 34.132812-4.269531zm0 35.523437c7.957031-4.296874 13.882812-11.570312 16.480469-20.230468.074219-.28125.230469-.539063.304687-.855469.273438-1.023437.351563-2.089844.539063-3.140625.1875-1.046875.484375-2.199219.570312-3.335938.335938-4.511718-.242187-9.046874-1.707031-13.328124l-2.300781-7.253907-8.484375-26.640625 5.164062-1.996094c2.992188-1.148437 6.378906-.488281 8.71875 1.707032l41.652344 38.867187c9.40625 9.300781 15.375 21.519531 16.929688 34.65625.207031 1.808594.3125 3.628907.316406 5.453125v34.386719c0 .453125.109375.855469.128906 1.316406-12.40625-6.828125-25.386719-13.65625-38.742188-20.40625-13.355468-6.75-26.683593-13.183593-39.542968-19.199219zm129.402344 38.289063c.023437 4.707031-1.910156 9.214844-5.335938 12.441406-3.324218 3.238281-7.859375 4.917969-12.492187 4.625-9.160157-.335937-16.386719-7.902343-16.304688-17.066406v-17.066406h34.132813zm82.5-195.0625-22.144532-25.949219.503907-.359375 5.160156-3.6875c4.683594-3.382812 10.65625-4.433593 16.214844-2.855469 3.148437.898438 5.941406 2.757813 7.980469 5.324219 2.898437 3.679688 4.164062 8.386719 3.511718 13.027344-.65625 4.640625-3.179687 8.8125-6.988281 11.546875zm-109.160156-60.9375c-23.464844-.117187-42.40625-19.203125-42.351563-42.664063 0-3.398437.410156-6.78125 1.222656-10.078124l.484375.246093c1.707032.914063 3.617188 1.867188 5.625 2.859375l.945313.46875c2.238281 1.101563 4.644531 2.21875 7.1875 3.371094l1.058593.46875c2.558594 1.144531 5.238282 2.296875 8.070313 3.414062l.316406.136719c2.925781 1.175781 5.972657 2.34375 9.191407 3.488281l1.320312.460938c6.46875 2.289062 13.40625 4.421875 20.730469 6.253906l1.40625.351563c7.660156 1.875 15.425781 3.300781 23.253906 4.265625.28125 0 .546875.09375.851563.128906-6.300782 16.207031-21.921876 26.867188-39.3125 26.828125zm0-128c4.671874.058594 8.433593 3.859375 8.429687 8.535156-.027344.902344-.207031 1.796875-.527344 2.644531-.203125.59375-.46875 1.167969-.792969 1.707032-.203124.363281-.433593.707031-.691406 1.03125-.304687.390625-.648437.75-1.023437 1.074218-.445313.382813-.929688.714844-1.441407.992188-.316406.191406-.640624.367188-.972656.519531-1.875.804688-3.996094.804688-5.871094 0-.28125-.105469-.550781-.226562-.8125-.367187-.59375-.3125-1.148437-.691406-1.65625-1.132813-.265624-.203125-.519531-.421875-.757812-.660156-2.296875-2.46875-2.925781-6.058594-1.601562-9.160156 1.324218-3.101563 4.347656-5.132813 7.71875-5.183594zm-17.355469 27.257813c.546875.519531 1.175781.921874 1.765625 1.390624s1.050781.851563 1.621094 1.253907c.925781.589843 1.886718 1.117187 2.882812 1.578125.460938.222656.855469.503906 1.359375.699218 1.109375.441407 2.25.800782 3.414063 1.074219.425781.113281.851562.28125 1.261718.367188 1.652344.339843 3.332032.511719 5.015625.511719 1.867188-.007813 3.730469-.226563 5.546875-.648438.648438-.144531 1.246094-.390625 1.878906-.585938 1.105469-.320312 2.183594-.714843 3.234376-1.1875.691406-.316406 1.332031-.699218 1.980468-1.074218.925782-.535156 1.820313-1.125 2.679688-1.769532.5625-.433593 1.109375-.851562 1.628906-1.355468.921875-.839844 1.777344-1.75 2.558594-2.722656.222656-.261719.503906-.476563.71875-.757813.460937.210937.902344.433594 1.347656.65625 26.078125 13.117187 29.773438 43.519531 29.917969 60.433594l-.855469-.070313c-31.75-2.707031-62.515625-12.386718-90.101562-28.347656l-.402344-.382812-.09375-.050782c5.304687-11.226562 13.039062-21.136718 22.640625-29.011718zm-143.71875-35.789063c-.023438-4.707031 1.90625-9.214844 5.332031-12.441406 3.347656-3.199219 7.871094-4.875 12.492188-4.625 9.347656 1.054687 16.3125 9.117187 15.992187 18.515625v7.082031h-33.816406zm15.691406 89.359375c-10.253906-15.445312-15.710937-33.582031-15.691406-52.121094v-11.640625h34.023437c.964844 19.675781 7.148438 38.742188 17.917969 55.238281l6.46875 9.871094c7.640625 11.695313 17.433594 21.828125 28.859375 29.867188l56.839844 39.980468 56.21875 32.671876c5.769531 3.351562 12.964844 3.019531 18.398437-.851563l15.359375-10.984375 22.144532 26.003906-22.417969 16.050782c-13.476563 9.582031-31.304688 10.414062-45.617188 2.132812l-29.296875-17.015625c-11.691406-6.773437-26.636718-3.234375-34.046875 8.0625l-3.089843 4.710937c-.816407 1.25-1.523438 2.566407-2.117188 3.933594l-49.671875-19.113281c.230469-.964844.476563-1.921875.625-2.910156l1.796875-12.742188c1.195312-8.304687-.710938-16.757812-5.355469-23.746093zm22.324219 145.230469 11.09375-4.269531c2.335937-.929688 4.5625-2.117188 6.636718-3.539063l.394532-.25c2.128906-1.476563 4.078125-3.195313 5.8125-5.117187l56.796875 21.785156c.621093 1.882812 1.460937 3.6875 2.5 5.375.203125.332031.390625.65625.605469.980468 1.089843 1.695313 2.375 3.253907 3.832031 4.644532l44.484375 41.496094c10.800781 10.015624 17.125 23.949218 17.5625 38.671874v24.03125h-34.132813v-.230468c-.3125-19.835938-8.460937-38.742188-22.667969-52.589844l-41.660156-38.863281c-1.058594-.976563-2.199218-1.863281-3.410156-2.644531-.367188-.238282-.742188-.453126-1.128906-.664063-.894532-.523437-1.824219-.988281-2.78125-1.390625-.410156-.179688-.851563-.367188-1.226563-.519531-1.296875-.480469-2.632812-.863281-3.988281-1.136719-.246094-.050781-.492188-.050781-.742188-.09375-1.152343-.183594-2.320312-.292969-3.488281-.324219-.207031 0-.410156-.050781-.613281-.050781-.207031 0-.582031.066406-.855469.074219-.9375.035156-1.871093.121093-2.796875.257812-.472656.066407-.929687.121094-1.390625.214844-1.375.265625-2.726562.648437-4.039062 1.140625l-5.160157 2c-8.421874 3.257812-12.84375 12.511719-10.097656 21.109375l5.367188 16.855469-34.132813 4.265625-5.84375-18.382813c-6.875-21.464844 4.09375-44.582031 25.070313-52.835937zm0 0"/>
    <path d="m90.246094 212.214844c4.089844 2.335937 9.300781.914062 11.640625-3.175782 2.335937-4.089843.914062-9.300781-3.175781-11.640624l-59.734376-34.132813c-2.648437-1.597656-5.960937-1.636719-8.648437-.097656-2.6875 1.539062-4.328125 4.414062-4.289063 7.511719.039063 3.09375 1.75 5.925781 4.472657 7.398437zm0 0"/>
    <path d="m1.773438 200.539062c-1.136719 1.964844-1.441407 4.296876-.855469 6.488282.589843 2.191406 2.027343 4.058594 3.996093 5.1875l25.597657 14.632812c4.09375 2.355469 9.324219.949219 11.679687-3.144531 2.355469-4.09375.949219-9.320313-3.144531-11.679687l-25.601563-14.625c-1.960937-1.136719-4.296874-1.441407-6.488281-.851563-2.1875.589844-4.054687 2.023437-5.183593 3.992187zm0 0"/>
</svg>