<svg viewBox="0 0 512.00002 512" xmlns="http://www.w3.org/2000/svg" fill="#834c69">
    <path d="m482.367188 289.570312c-19.550782-19.585937-37.335938-23.863281-54.539063-27.996093-16.660156-4-32.398437-7.78125-50.671875-26.085938-17.15625-17.191406-16.007812-26.835937-30.902344-41.769531-11.121094-11.144531-27.347656-16.683594-45.679687-15.585938-4.136719.246094-7.289063 3.796876-7.042969 7.933594.246094 4.132813 3.777344 7.3125 7.933594 7.039063 14.183594-.835938 26.007812 3.03125 34.167968 11.207031 12.847657 12.882812 12.125 22.953125 30.90625 41.769531 21.261719 21.308594 40.664063 25.96875 57.78125 30.078125 15.875 3.816406 30.871094 7.417969 47.425782 24.003906 38.941406 39.027344 32.214844 109.265626-14.992188 156.570313-25.535156 25.585937-59.113281 40.265625-92.125 40.265625-25.4375 0-47.601562-8.730469-64.09375-25.253906-16.648437-16.683594-20.226562-31.820313-24.015625-47.847656-4.058593-17.164063-8.660156-36.617188-29.773437-57.777344-18.597656-18.625-28.71875-17.589844-41.855469-30.75-18.945313-18.988282-16.839844-48.804688 5.285156-80.789063l40.1875 40.214844c2.929688 2.929687 7.683594 2.933594 10.613281 0l33.886719-33.910156c2.925781-2.929688 2.925781-7.671875 0-10.601563l-39.976562-40c6.066406-4 12.230469-7.363281 18.40625-10.035156 3.800781-1.648438 5.550781-6.0625 3.902343-9.863281-1.644531-3.804688-6.0625-5.550781-9.863281-3.902344-7.84375 3.394531-15.640625 7.753906-23.246093 12.992187-84.59375-84.648437-29.632813-30.421874-128.332032-128.414062l-15.742187-32.148438c-.5-1.015624-1.21875-1.902343-2.109375-2.601562l-35.898438-28.152344c-15.246094-11.957031-37.074218-10.640625-50.773437 3.070313-13.785157 13.792969-15.03125 35.710937-2.898438 50.980469l18.472657 23.246093c2.578124 3.246094 7.296874 3.785157 10.539062 1.207031 3.246094-2.574218 3.785156-7.292968 1.207031-10.535156l-18.472656-23.246094c-7.386719-9.300781-6.628906-22.648437 1.765625-31.050781 8.335938-8.339843 21.621094-9.144531 30.902344-1.867187l34.542968 27.089844 13.183594 26.917968-26.304687 26.324219-13.859375-6.800781c-3.714844-1.824219-8.210938-.292969-10.039063 3.429687-1.824219 3.714844-.289062 8.210938 3.429688 10.035157l17.558593 8.617187 128.15625 128.238281c-12.632812 17.683594-20.199218 35.652344-21.96875 52.285156-2.078124 19.507813 3.742188 36.75 16.824219 49.863282 15.390625 15.421875 24.777344 13.644531 41.855469 30.75 18.113281 18.152344 21.84375 33.929687 25.792969 50.632812 4.101562 17.351563 8.347656 35.300782 28 54.992188 19.089843 19.125 45.625 29.660156 74.714843 29.660156 36.964844-.003906 74.414063-16.285156 102.742188-44.671875 53.035156-53.144531 59.761719-132.886719 14.992188-177.757813zm-314.277344-98.316406 23.285156-23.300781 15.09375 15.101563-23.285156 23.300781zm-25.699219-25.714844 23.285156-23.300781 15.09375 15.105469-23.285156 23.296875zm-25.695313-25.714843 23.28125-23.300781 15.09375 15.105468-23.28125 23.296875zm100.375 53.84375 15.09375 15.101562-23.28125 23.300781-15.09375-15.101562zm38.597657 85.21875-36.183594-36.207031 23.285156-23.296876 36.179688 36.203126zm-146.101563-192.792969 19.808594 19.820312-23.285156 23.300782-19.804688-19.820313zm0 0"/>
    <path d="m383.269531 452.976562c8.550781 8.570313 22.402344 8.570313 30.957031 0l38.953126-39.035156c8.515624-8.535156 8.515624-22.417968 0-30.949218-8.695313-8.714844-22.566407-8.40625-30.957032 0l-38.953125 39.035156c-8.515625 8.535156-8.515625 22.417968 0 30.949218zm10.621094-20.351562 38.953125-39.039062c2.6875-2.691407 7.03125-2.691407 9.71875.003906 2.683594 2.6875 2.683594 7.066406 0 9.757812l-38.957031 39.035156c-2.683594 2.691407-7.03125 2.691407-9.714844 0-2.6875-2.691406-2.6875-7.070312 0-9.757812zm0 0"/>
    <path d="m296.042969 295.777344c-24.761719 24.757812-24.761719 65.046875 0 89.804687 7.476562 7.472657 16.753906 13 26.835937 15.984375 3.988282 1.179688 8.148438-1.105468 9.320313-5.0625 1.175781-3.972656-1.089844-8.144531-5.0625-9.320312-7.691407-2.277344-14.773438-6.496094-20.484375-12.207032-18.914063-18.910156-18.914063-49.679687 0-68.589843 18.957031-18.957031 49.640625-18.957031 68.601562 0 18.957032 18.953125 18.960938 49.632812 0 68.589843-5.699218 5.699219-12.765625 9.914063-20.433594 12.191407-3.972656 1.179687-6.234374 5.355469-5.054687 9.324219 1.179687 3.972656 5.355469 6.238281 9.328125 5.054687 10.054688-2.984375 19.308594-8.507813 26.769531-15.964844 24.820313-24.816406 24.824219-64.984375 0-89.804687-24.820312-24.816406-64.996093-24.820313-89.820312 0zm0 0"/>
    <path d="m50.40625 42.574219c2.925781 2.929687 7.675781 2.933593 10.609375.003906 2.929687-2.929687 2.929687-7.679687 0-10.609375l-5.707031-5.710938c-2.925782-2.929687-7.675782-2.933593-10.609375 0-2.929688 2.925782-2.929688 7.675782 0 10.605469zm0 0"/>
    <path d="m37.042969 44.535156c-2.929688-2.933594-7.679688-2.933594-10.609375-.003906-2.929688 2.925781-2.929688 7.675781-.003906 10.605469l5.710937 5.710937c2.925781 2.929688 7.675781 2.933594 10.605469.003906 2.933594-2.925781 2.933594-7.675781.003906-10.605468zm0 0"/>
    <path d="m72.910156 65.085938c2.925782 2.929687 7.675782 2.933593 10.605469.003906 2.929687-2.929688 2.933594-7.675782.003906-10.605469l-5.707031-5.710937c-2.929688-2.929688-7.679688-2.933594-10.609375-.003907-2.929687 2.925781-2.929687 7.675781-.003906 10.605469zm0 0"/>
    <path d="m65.25 83.363281c2.929688-2.925781 2.933594-7.675781.003906-10.605469l-5.707031-5.710937c-2.929687-2.929687-7.679687-2.933594-10.609375-.003906-2.929688 2.929687-2.929688 7.679687-.003906 10.609375l5.710937 5.710937c2.925781 2.925781 7.675781 2.929688 10.605469 0zm0 0"/>
</svg>